# AST/ASF file generated using VICON BodyLanguage
# -----------------------------------------------
:version 1.10
:name VICON
:units
  mass 1.0
  length 0.45
  angle deg
:documentation
   .ast/.asf automatically generated from VICON data using
   VICON BodyBuilder and BodyLanguage model FoxedUp or BRILLIANT.MOD
:root
   order TX TY TZ RX RY RZ
   axis XYZ
   position 0 0 0  
   orientation 0 0 0 
:bonedata
  begin
     id 1 
     name lhipjoint
     direction 0.734343 -0.627749 0.258209 
     length 2.5437 
     axis 0 0 0  XYZ
  end
  begin
     id 2 
     name lfemur
     direction 0.34202 -0.939693 0  
     length 6.7391  
     axis 0 0 20  XYZ
    dof rx ry rz
    limits (-160.0 20.0)
           (-70.0 70.0)
           (-60.0 70.0)
  end
  begin
     id 3 
     name ltibia
     direction 0.34202 -0.939693 0   
     length 7.21536   
     axis 0 0 20   XYZ
    dof rx
    limits (-10.0 170.0)
  end
  begin
     id 4 
     name lfoot
     direction 0.0489572 -0.134509 0.989702   
     length 1.61313   
     axis -90 7.62852e-016 20   XYZ
    dof rx rz
    limits (-45.0 90.0)
           (-70.0 20.0)
  end
  begin
     id 5 
     name ltoes
     direction 1.53451e-011 -4.21692e-011 1   
     length 0.823104   
     axis -90 7.62852e-016 20   XYZ
    dof rx
    limits (-90.0 20.0)
  end
  begin
     id 6 
     name rhipjoint
     direction -0.746398 -0.615468 0.253157   
     length 2.59446  
     axis 0 0 0  XYZ 
  end
  begin
     id 7 
     name rfemur
     direction -0.34202 -0.939693 0   
     length 6.7075   
     axis 0 0 -20   XYZ
    dof rx ry rz
    limits (-160.0 20.0)
           (-70.0 70.0)
           (-70.0 60.0)
  end
  begin
     id 8 
     name rtibia
     direction -0.34202 -0.939693 0   
     length 7.27262   
     axis 0 0 -20   XYZ
    dof rx
    limits (-10.0 170.0)
 end
 begin
     id 9 
     name rfoot
     direction -0.0455203 -0.125066 0.991104   
     length 1.91095  
     axis -90 -7.62852e-016 -20   XYZ
    dof rx rz
    limits (-45.0 90.0)
           (-20.0 70.0)
  end
  begin
     id 10 
     name rtoes
     direction -1.53601e-011 -4.21913e-011 1   
     length 0.969037   
     axis -90 -7.62852e-016 -20   XYZ
    dof rx
    limits (-90.0 20.0)
  end
  begin
     id 11 
     name lowerback
     direction 0.0181546 0.999122 -0.0377542   
     length 1.99916   
     axis 0 0 0   XYZ
    dof rx ry rz
    limits (-20.0 45.0)
           (-30.0 30.0)
           (-30.0 30.0)
  end
  begin
     id 12 
     name upperback
     direction 0.0203486 0.99589 0.0882534   
     length 1.951   
     axis 0 0 0   XYZ
    dof rx ry rz
    limits (-20.0 45.0)
           (-30.0 30.0)
           (-30.0 30.0)
  end
  begin
     id 13 
     name thorax
     direction 0.0131685 0.994241 0.106355   
     length 1.97461   
     axis 0 0 0   XYZ
    dof rx ry rz
    limits (-20.0 45.0)
           (-30.0 30.0)
           (-30.0 30.0)
  end
  begin
     id 14 
     name lowerneck
     direction -0.0281395 0.999325 0.023617   
     length 1.7959   
     axis 0 0 0   XYZ
    dof rx ry rz
    limits (-20.0 45.0)
           (-30.0 30.0)
           (-30.0 30.0)
  end
  begin
     id 15 
     name upperneck
     direction 0.0288721 0.991984 -0.123019   
     length 1.79917   
     axis 0 0 0   XYZ
    dof rx ry rz
    limits (-20.0 45.0)
           (-30.0 30.0)
           (-30.0 30.0)
  end
  begin
     id 16
     name head
     direction 0.0133797 0.998944 -0.0439492  
     length 1.80902  
     axis 0 0 0   XYZ
    dof rx ry rz
    limits (-20.0 45.0)
           (-30.0 30.0)
           (-30.0 30.0)
  end
  begin
     id 17 
     name lclavicle
     direction 0.919195 0.377107 0.113449  
     length 3.17815  
     axis 0 0 0   XYZ
    dof ry rz
    limits (-20.0 10.0)
           (0.0 20.0)
  end
  begin
     id 18 
     name lhumerus
     direction 1 -4.48959e-011 2.13129e-027   
     length 4.84137   
     axis 180 -30 -90   XYZ
    dof rx ry rz
    limits (-60.0 90.0)
           (-90.0 90.0)
           (-90.0 90.0)
  end
  begin
     id 19
     name lradius
     direction 1 -4.48957e-011 -6.30627e-028   
     length 3.2452   
     axis 180 -30 -90   XYZ
    dof rx
    limits (-10.0 170.0)
  end
  begin
     id 20
     name lwrist
     direction 1 -4.4901e-011 9.13299e-027   
     length 1.6226   
     axis -6.84618e-015 90 90   XYZ
    dof ry
    limits (-180.0 0.0)
 end
  begin
     id 21 
     name lhand
     direction 1 -4.48816e-011 1.82293e-026   
     length 0.521221   
     axis -1.16502e-014 90 90   XYZ
    dof rx rz
    limits (-90.0 90.0)
           (-45.0 45.0)
  end
  begin
     id 22 
     name lfingers
     direction 1 -4.49108e-011 3.65687e-026   
     length 0.420221   
     axis -2.33008e-014 90 90   XYZ
    dof rx
    limits (0.0 90.0)
  end
  begin
     id 23
     name lthumb
     direction 0.707107 -6.34943e-011 0.707107   
     length 0.603356   
     axis -90 45 5.69224e-014   XYZ
    dof rx rz
    limits (-45.0 45.0)
           (-45.0 45.0)
  end
  begin
     id 24 
     name rclavicle
     direction -0.90847 0.38596 0.160368   
     length 3.12973  
     axis 0 0 0   XYZ 
    dof ry rz
    limits (-10.0 20.0)
           (-20.0 0.0)
  end
  begin
     id 25 
     name rhumerus
     direction -1 -4.48974e-011 4.47268e-028  
     length 4.72284   
     axis 180 30 90   XYZ
    dof rx ry rz
    limits (-90.0 60.0)
           (-90.0 90.0)
           (-90.0 90.0)
  end
  begin
     id 26 
     name rradius
     direction -1 -4.48969e-011 3.43203e-027   
     length 3.23459   
     axis 180 30 90   XYZ
    dof rx
    limits (-10.0 170.0)
  end
  begin
     id 27 
     name rwrist
     direction -1 -4.48969e-011 9.12911e-027   
     length 1.6173   
     axis -6.84618e-015 -90 -90   XYZ
    dof ry
    limits (-180.0 0.0)
  end
  begin
     id 28
     name rhand
     direction -1 -4.49194e-011 1.83006e-026   
     length 0.307416   
     axis -1.16502e-014 -90 -90   XYZ
    dof rx rz
    limits (-90.0 90.0)
           (-45.0 45.0)
  end
  begin
     id 29
     name rfingers
     direction -1 -4.48423e-011 3.63103e-026   
     length 0.247847   
     axis -2.33008e-014 -90 -90   XYZ
    dof rx
    limits (0.0 90.0)
  end
  begin
     id 30
     name rthumb
     direction -0.707107 -6.34802e-011 0.707107   
     length 0.35586   
     axis -90 -45 -5.69224e-014   XYZ
    dof rx rz
    limits (-45.0 45.0)
           (-45.0 45.0)
  end
:hierarchy
  begin
    root lhipjoint rhipjoint lowerback
    lhipjoint lfemur
    lfemur ltibia
    ltibia lfoot
    lfoot ltoes
    rhipjoint rfemur
    rfemur rtibia
    rtibia rfoot
    rfoot rtoes
    lowerback upperback
    upperback thorax
    thorax lowerneck lclavicle rclavicle
    lowerneck upperneck
    upperneck head
    lclavicle lhumerus
    lhumerus lradius
    lradius lwrist
    lwrist lhand lthumb
    lhand lfingers
    rclavicle rhumerus
    rhumerus rradius
    rradius rwrist
    rwrist rhand rthumb
    rhand rfingers
  end

#!OML:ASF H:\Terrain\Patient Classification 1\Animal1\Tuesday\Animal1.ASF
:FULLY-SPECIFIED
:DEGREES
201
root 20.8879 13.5057 -13.007 28.372 -24.0757 3.94604
lowerback 39.6324 -1.65171 -0.917022
upperback -3.94213 -2.3115 1.27382
thorax -25.3571 -0.564248 3.32381
lowerneck -6.09599 6.05628 -1.43519
upperneck -34.849 7.59013 -2.62773
head -10.1435 3.78557 -1.13497
rclavicle 3.35946e-014 1.8487e-014
rhumerus -34.894 15.1998 10.8057
rradius 21.8497
rwrist -37.3664
rhand -7.68866 4.2389
rfingers 7.12502
rthumb 18.2084 -24.9289
lclavicle 3.35946e-014 1.8487e-014
lhumerus -21.4833 -5.24702 -5.89473
lradius 23.0636
lwrist -9.32734
lhand 13.982 49.0738
lfingers 7.12502
lthumb 38.8926 74.6245
rfemur -111.694 -16.2265 25.1328
rtibia 86.7815
rfoot 42.7033 11.5242
rtoes 12.5185
lfemur -77.2378 -13.9061 -23.0039
ltibia 79.5459
lfoot -27.0551 23.1318
ltoes 8.6095
202
root 20.8908 13.505 -13.0096 28.2816 -24.0644 4.12693
lowerback 39.6698 -1.68117 -0.945998
upperback -3.91241 -2.37912 1.21689
thorax -25.3272 -0.591495 3.3083
lowerneck -5.9185 6.09213 -1.39475
upperneck -35.0441 7.63868 -2.65689
head -10.2481 3.80407 -1.16796
rclavicle 1.3418e-014 -3.60794e-014
rhumerus -35.0322 16.0601 10.4799
rradius 21.887
rwrist -38.1232
rhand -7.66617 4.14373
rfingers 7.12502
rthumb 18.23 -25.022
lclavicle 1.3418e-014 -3.60794e-014
lhumerus -21.2789 -4.81025 -6.06775
lradius 22.823
lwrist -10.2874
lhand 14.6641 48.9755
lfingers 7.12502
lthumb 39.5354 74.34
rfemur -111.709 -16.3391 24.9805
rtibia 86.8215
rfoot 42.7932 11.484
rtoes 12.4735
lfemur -77.1977 -13.9855 -23.154
ltibia 79.4405
lfoot -27.1731 22.8302
ltoes 9.68459
203
root 20.8944 13.5065 -13.0126 28.2928 -24.0722 4.20626
lowerback 39.7185 -1.68129 -0.994103
upperback -3.92171 -2.4009 1.22649
thorax -25.3591 -0.590205 3.36021
lowerneck -5.49629 6.11072 -1.33218
upperneck -35.4902 7.62303 -2.81286
head -10.4896 3.79808 -1.26339
rclavicle 3.19049e-014 -4.45278e-014
rhumerus -35.0979 16.4326 10.4035
rradius 22.0275
rwrist -38.434
rhand -7.3223 3.68774
rfingers 7.12502
rthumb 18.5608 -25.4468
lclavicle 3.19049e-014 -4.45278e-014
lhumerus -21.255 -4.23486 -6.1556
lradius 22.6125
lwrist -11.2043
lhand 14.9862 48.8136
lfingers 7.12502
lthumb 39.8386 74.0881
rfemur -111.78 -16.3441 24.8812
rtibia 86.8215
rfoot 42.7587 10.6077
rtoes 13.7964
lfemur -77.2368 -14.0525 -23.149
ltibia 79.3007
lfoot -27.3407 22.4998
ltoes 10.9229
204
root 20.8981 13.516 -13.0141 28.217 -24.0429 4.1341
lowerback 39.9873 -1.68706 -0.928815
upperback -3.91858 -2.36702 1.26341
thorax -25.4778 -0.578681 3.35813
lowerneck -5.27583 6.15908 -1.30732
upperneck -35.7776 7.67852 -2.87576
head -10.64 3.82303 -1.31182
rclavicle 2.5842e-015 1.37161e-014
rhumerus -35.1123 16.6471 10.4055
rradius 22.2125
rwrist -38.5074
rhand -6.8892 2.69347
rfingers 7.12502
rthumb 18.9774 -26.4007
lclavicle 2.5842e-015 1.37161e-014
lhumerus -21.3475 -4.1547 -6.17823
lradius 22.5918
lwrist -11.3548
lhand 14.7447 48.6893
lfingers 7.12502
lthumb 39.6113 74.0315
rfemur -111.592 -16.339 24.8939
rtibia 86.788
rfoot 42.7209 9.39215
rtoes 15.829
lfemur -77.0779 -14.069 -23.0693
ltibia 79.166
lfoot -27.2412 22.5829
ltoes 10.5714
205
root 20.9003 13.5213 -13.0168 28.2039 -24.0138 4.07662
lowerback 40.1586 -1.70208 -0.836967
upperback -3.8912 -2.34208 1.25802
thorax -25.5188 -0.581751 3.29125
lowerneck -5.47377 6.25189 -1.17995
upperneck -35.7469 7.80541 -2.93679
head -10.5819 3.87305 -1.35465
rclavicle -1.17283e-014 1.46107e-014
rhumerus -35.196 16.8549 10.327
rradius 22.3382
rwrist -38.6301
rhand -6.36645 2.35804
rfingers 7.12502
rthumb 19.4801 -26.6861
lclavicle -1.17283e-014 1.46107e-014
lhumerus -21.3423 -4.55531 -6.21333
lradius 22.6692
lwrist -10.8859
lhand 14.8314 48.867
lfingers 7.12502
lthumb 39.6929 74.185
rfemur -111.479 -16.3138 24.8851
rtibia 86.7637
rfoot 42.7511 8.59724
rtoes 17.1776
lfemur -77.0146 -14.0336 -23.0521
ltibia 79.0959
lfoot -26.897 22.9021
ltoes 9.11747
206
root 20.9031 13.522 -13.0177 28.2001 -24.0229 4.15117
lowerback 40.2512 -1.70592 -0.827479
upperback -3.87916 -2.35209 1.22069
thorax -25.5433 -0.589683 3.24888
lowerneck -5.55627 6.35011 -0.977553
upperneck -35.7055 7.91543 -3.09569
head -10.5305 3.9166 -1.44808
rclavicle 1.25234e-014 -3.97569e-016
rhumerus -35.1429 16.1854 10.6305
rradius 22.2869
rwrist -37.8327
rhand -5.47194 2.53379
rfingers 7.12502
rthumb 20.3399 -26.4211
lclavicle 1.25234e-014 -3.97569e-016
lhumerus -21.2739 -5.00704 -6.1619
lradius 22.7007
lwrist -10.4531
lhand 15.1924 49.0929
lfingers 7.12502
lthumb 40.0328 74.309
rfemur -111.529 -16.3131 24.7669
rtibia 86.774
rfoot 42.7997 7.75267
rtoes 18.6321
lfemur -77.0185 -14.0135 -23.1991
ltibia 79.1041
lfoot -26.8463 22.9546
ltoes 8.97662
207
root 20.9065 13.524 -13.0145 28.1379 -24.0411 4.22047
lowerback 40.3849 -1.71495 -0.819772
upperback -3.86986 -2.36635 1.19701
thorax -25.589 -0.596581 3.22768
lowerneck -5.30014 6.42929 -0.920418
upperneck -35.9182 8.01008 -3.20062
head -10.6525 3.96225 -1.51982
rclavicle -9.54166e-015 5.50634e-014
rhumerus -34.9972 15.4789 11.0134
rradius 22.1721
rwrist -37.0638
rhand -4.85141 2.79343
rfingers 7.12502
rthumb 20.9362 -26.0967
lclavicle -9.54166e-015 5.50634e-014
lhumerus -21.2492 -4.91504 -6.1339
lradius 22.6834
lwrist -10.6344
lhand 15.4516 48.9542
lfingers 7.12502
lthumb 40.2766 74.0962
rfemur -111.495 -16.3511 24.6816
rtibia 86.7828
rfoot 42.766 7.36556
rtoes 19.5416
lfemur -76.9393 -14.0202 -23.3243
ltibia 79.1192
lfoot -27.1457 22.6655
ltoes 10.1375
208
root 20.909 13.5275 -13.0155 28.1855 -24.0357 4.11944
lowerback 40.4325 -1.74042 -0.745115
upperback -3.85585 -2.35409 1.22669
thorax -25.5917 -0.599439 3.21649
lowerneck -4.92298 6.48269 -0.976617
upperneck -36.3173 8.08968 -3.20693
head -10.885 4.0008 -1.5485
rclavicle 3.3694e-014 -2.64384e-014
rhumerus -35.0167 16.1483 10.7807
rradius 22.3274
rwrist -38.0477
rhand -5.17504 2.92102
rfingers 7.12502
rthumb 20.6252 -26.0032
lclavicle 3.3694e-014 -2.64384e-014
lhumerus -21.3579 -4.95898 -6.12744
lradius 22.7792
lwrist -10.7744
lhand 15.8497 48.9631
lfingers 7.12502
lthumb 40.6508 73.9895
rfemur -111.43 -16.287 24.7483
rtibia 86.7542
rfoot 42.5917 8.26607
rtoes 17.9883
lfemur -76.9579 -14.0009 -23.2065
ltibia 79.1257
lfoot -27.3069 22.5264
ltoes 10.4509
209
root 20.9107 13.5283 -13.0211 28.2476 -24.0245 4.10836
lowerback 40.4752 -1.77152 -0.723105
upperback -3.86978 -2.3806 1.23869
thorax -25.6301 -0.609024 3.23594
lowerneck -4.67774 6.51184 -1.1045
upperneck -36.5865 8.17281 -3.06716
head -11.0547 4.03613 -1.50261
rclavicle -9.3727e-014 2.32578e-014
rhumerus -35.0642 17.2258 10.339
rradius 22.5156
rwrist -39.4948
rhand -5.91018 3.04117
rfingers 7.12502
rthumb 19.9187 -25.958
lclavicle -9.3727e-014 2.32578e-014
lhumerus -21.4233 -5.63424 -6.06504
lradius 22.8615
lwrist -10.31
lhand 16.4422 49.4058
lfingers 7.12502
lthumb 41.2074 74.2559
rfemur -111.472 -16.2299 24.7249
rtibia 86.726
rfoot 42.6951 8.83532
rtoes 16.4019
lfemur -77.042 -13.9789 -23.1871
ltibia 79.1366
lfoot -27.2403 22.5912
ltoes 10.0814
210
root 20.9122 13.5259 -13.0263 28.4389 -23.9507 4.01438
lowerback 40.4322 -1.82323 -0.553162
upperback -3.8948 -2.36349 1.23456
thorax -25.6557 -0.626257 3.12879
lowerneck -4.57519 6.55818 -1.11051
upperneck -36.7465 8.26705 -3.00131
head -11.1433 4.07112 -1.49479
rclavicle -5.96354e-014 3.18055e-014
rhumerus -34.8345 16.6939 10.5792
rradius 22.3084
rwrist -38.9424
rhand -5.90028 3.04421
rfingers 7.12502
rthumb 19.9282 -25.954
lclavicle -5.96354e-014 3.18055e-014
lhumerus -21.247 -6.11097 -6.06919
lradius 22.8053
lwrist -9.80646
lhand 16.9516 49.8303
lfingers 7.12502
lthumb 41.6854 74.5248
rfemur -111.597 -16.154 24.7815
rtibia 86.6674
rfoot 42.94 8.3187
rtoes 16.7204
lfemur -77.2791 -13.916 -23.0793
ltibia 79.1771
lfoot -27.1764 22.5338
ltoes 10.2065
211
root 20.9158 13.5274 -13.0278 28.6055 -23.8784 3.77168
lowerback 40.4205 -1.88061 -0.266698
upperback -3.88169 -2.29223 1.2399
thorax -25.645 -0.64124 2.9379
lowerneck -4.47909 6.6367 -0.932388
upperneck -36.9023 8.35071 -3.15887
head -11.2058 4.10154 -1.59822
rclavicle 4.27387e-015 1.63003e-014
rhumerus -34.5083 15.4561 11.1122
rradius 22.0389
rwrist -37.4072
rhand -5.06383 2.20207
rfingers 7.12502
rthumb 20.7321 -26.7105
lclavicle 4.27387e-015 1.63003e-014
lhumerus -21.0526 -6.20066 -6.12771
lradius 22.743
lwrist -9.53299
lhand 17.5283 50.1655
lfingers 7.12502
lthumb 42.226 74.6794
rfemur -111.573 -16.0391 24.9618
rtibia 86.5663
rfoot 42.8812 8.43902
rtoes 16.2738
lfemur -77.4322 -13.851 -22.8003
ltibia 79.1994
lfoot -27.2644 22.3502
ltoes 10.7597
212
root 20.9191 13.5299 -13.0302 28.6428 -23.9696 3.59558
lowerback 40.5047 -1.85089 -0.167736
upperback -3.8452 -2.20664 1.22494
thorax -25.6361 -0.627036 2.81831
lowerneck -4.33681 6.70396 -0.653546
upperneck -37.0669 8.3868 -3.43194
head -11.2682 4.10852 -1.75987
rclavicle 3.02153e-014 -2.20651e-014
rhumerus -34.3389 14.6561 11.4475
rradius 21.9465
rwrist -36.3069
rhand -4.18968 1.37377
rfingers 7.12502
rthumb 21.5718 -27.4448
lclavicle 3.02153e-014 -2.20651e-014
lhumerus -20.889 -6.2475 -6.16576
lradius 22.6778
lwrist -9.3617
lhand 18.5573 50.7879
lfingers 7.12502
lthumb 43.1888 74.9668
rfemur -111.465 -15.8576 25.0484
rtibia 86.4329
rfoot 42.7604 9.46763
rtoes 14.482
lfemur -77.4282 -13.7046 -22.6681
ltibia 79.2032
lfoot -27.3034 22.2406
ltoes 11.1615
213
root 20.9212 13.5325 -13.0357 28.578 -24.1431 3.49439
lowerback 40.6976 -1.78609 -0.204545
upperback -3.80812 -2.14795 1.19249
thorax -25.6684 -0.603826 2.76982
lowerneck -4.16829 6.77185 -0.543438
upperneck -37.2115 8.48346 -3.48899
head -11.3488 4.14251 -1.81975
rclavicle 2.5842e-015 1.09332e-014
rhumerus -34.203 14.3021 11.585
rradius 21.8819
rwrist -35.6259
rhand -3.7976 0.951306
rfingers 7.12502
rthumb 21.9483 -27.8236
lclavicle 2.5842e-015 1.09332e-014
lhumerus -20.7417 -6.03628 -6.30033
lradius 22.6444
lwrist -9.45125
lhand 19.9032 51.3424
lfingers 7.12502
lthumb 44.4449 75.0574
rfemur -111.276 -15.6563 25.0096
rtibia 86.301
rfoot 42.8643 9.56879
rtoes 14.6179
lfemur -77.3289 -13.5019 -22.6943
ltibia 79.211
lfoot -27.1265 22.4721
ltoes 10.3665
214
root 20.9232 13.5371 -13.0383 28.4468 -24.2304 3.46686
lowerback 40.912 -1.80061 -0.208211
upperback -3.75607 -2.17976 1.14638
thorax -25.6849 -0.618929 2.73775
lowerneck -4.00982 6.84744 -0.617527
upperneck -37.377 8.64863 -3.3319
head -11.4599 4.20815 -1.77626
rclavicle 5.56597e-015 -1.78906e-015
rhumerus -34.1254 14.9634 11.3354
rradius 21.9079
rwrist -35.9391
rhand -3.67323 0.387869
rfingers 7.12502
rthumb 22.0677 -28.373
lclavicle 5.56597e-015 -1.78906e-015
lhumerus -20.6787 -5.68376 -6.52848
lradius 22.6542
lwrist -9.65324
lhand 20.6181 51.3727
lfingers 7.12502
lthumb 45.1105 74.8286
rfemur -111.037 -15.5733 24.8731
rtibia 86.2145
rfoot 43.0181 9.1105
rtoes 15.5927
lfemur -77.1561 -13.4221 -22.7612
ltibia 79.2082
lfoot -27.0315 22.6885
ltoes 9.31481
215
root 20.9245 13.534 -13.0406 28.5063 -24.2638 3.49007
lowerback 40.8842 -1.81763 -0.232086
upperback -3.73319 -2.21988 1.12506
thorax -25.6371 -0.633505 2.74585
lowerneck -3.76491 6.91621 -0.524918
upperneck -37.701 8.74079 -3.40948
head -11.6317 4.23917 -1.85199
rclavicle 2.18663e-015 -4.53229e-014
rhumerus -34.1769 16.1068 10.9949
rradius 22.103
rwrist -36.8994
rhand -3.46834 0.209529
rfingers 7.12502
rthumb 22.2644 -28.528
lclavicle 2.18663e-015 -4.53229e-014
lhumerus -20.5978 -5.44257 -6.66532
lradius 22.6292
lwrist -9.74229
lhand 20.6189 51.6226
lfingers 7.12502
lthumb 45.1112 75.0782
rfemur -111.119 -15.515 24.756
rtibia 86.1763
rfoot 43.0351 9.304
rtoes 14.9545
lfemur -77.2518 -13.3933 -22.8296
ltibia 79.2434
lfoot -26.9791 22.785
ltoes 8.57948
